<svg version="1" xmlns="http://www.w3.org/2000/svg" width="682.667" height="682.667" viewBox="0 0 512.000000 512.000000"><path d="M235.9 8.4c-.2.2-3.1.7-6.4 1-3.3.3-7.3.8-9 1.1-1.6.2-4.3.7-6 .9-1.6.3-4.3.8-6 1.1-1.6.3-3.9.7-5 .9-16 2.9-44.1 13.2-63.1 23.2-16.1 8.5-24.7 14.2-41.4 27.7-39.9 32.3-68.6 76.5-82.4 127.1-1.9 6.6-3.6 13.9-3.9 16.1-.3 2.2-.8 4.7-1.1 5.5-.3.8-.8 3.5-1 6-.3 2.5-.9 7.4-1.3 11-1.6 13.1-.8 52.1 1.2 61.5.2 1.1.7 3.7 1 5.8.9 7 3.6 18.8 6.1 27.4 16.1 55.6 52.8 105.6 100.9 137.6 3.9 2.6 7.5 5 8 5.4 4 3.1 27.9 14.9 39.1 19.3 9.8 3.9 27.8 9.4 37.9 11.5 19 4 29.2 5 52 5 21 0 32.5-.8 42.3-3.1 1.3-.2 4.3-.7 6.5-1.1 6.6-.9 27.5-6.8 38.3-10.9 25.3-9.4 52.3-25 72.2-41.8 9.2-7.8 29-28.3 36.3-37.6 17.4-22.2 30.5-46.3 39.9-73.7 2.2-6.2 3.9-11.4 3.9-11.6-.1-.1.4-2.2 1.1-4.7 1.5-5.5 3.8-16.3 4.5-21.6.4-2.1.8-5 1.1-6.4 1.3-7.6 1.9-17.6 1.9-35.5 0-20.7-.6-28.2-3-41.3-.3-1.5-.8-4.2-1.1-6.1-3.9-23-14.5-51.2-28.9-76.6-17.8-31.5-50-65-82-85.2-25.6-16.1-56.4-28.4-85-33.9-2.2-.4-4.4-.8-5-.9-.5-.1-3.5-.6-6.5-1s-6.4-.9-7.5-1.2c-2.5-.5-48.1-1.4-48.6-.9z"/></svg>